<svg width="27" height="28" viewBox="0 0 27 28" fill="none" xmlns="http://www.w3.org/2000/svg">
<path d="M25.3568 6.14117L23.8806 5.71921C23.2158 5.53174 22.6102 5.17677 22.1218 4.68825C21.6334 4.19973 21.2785 3.59402 21.091 2.92907L20.6692 1.45248C20.6479 1.40081 20.6119 1.35663 20.5655 1.32553C20.5191 1.29444 20.4645 1.27783 20.4087 1.27783C20.3528 1.27783 20.2983 1.29444 20.2519 1.32553C20.2055 1.35663 20.1694 1.40081 20.1482 1.45248L19.7263 2.92907C19.5389 3.59402 19.184 4.19973 18.6956 4.68825C18.2072 5.17677 17.6016 5.53174 16.9368 5.71921L15.4605 6.14117C15.4038 6.15726 15.3539 6.19141 15.3184 6.23843C15.2829 6.28545 15.2637 6.34278 15.2637 6.40171C15.2637 6.46065 15.2829 6.51798 15.3184 6.565C15.3539 6.61202 15.4038 6.64616 15.4605 6.66226L16.9368 7.08422C17.6016 7.27168 18.2072 7.62666 18.6956 8.11518C19.184 8.6037 19.5389 9.20941 19.7263 9.87436L20.1482 11.3509C20.1643 11.4076 20.1984 11.4575 20.2454 11.4931C20.2924 11.5286 20.3497 11.5478 20.4087 11.5478C20.4676 11.5478 20.5249 11.5286 20.5719 11.4931C20.6189 11.4575 20.6531 11.4076 20.6692 11.3509L21.091 9.87436C21.2785 9.20941 21.6334 8.6037 22.1218 8.11518C22.6102 7.62666 23.2158 7.27168 23.8806 7.08422L25.3568 6.66226C25.4135 6.64616 25.4634 6.61202 25.4989 6.565C25.5345 6.51798 25.5537 6.46065 25.5537 6.40171C25.5537 6.34278 25.5345 6.28545 25.4989 6.23843C25.4634 6.19141 25.4135 6.15726 25.3568 6.14117Z" fill="black"/>
<path d="M14.3749 22.9333C13.9916 22.9333 13.6083 22.6458 13.6083 22.1666V9.83332C13.6083 9.44998 13.8958 9.06665 14.3749 9.06665C14.8541 9.06665 15.1416 9.35415 15.1416 9.83332V22.1666C15.1416 22.55 14.7583 22.9333 14.3749 22.9333ZM11.4999 21.0583C11.1166 21.0583 10.7333 20.7708 10.7333 20.2916V12.7083C10.7333 12.325 11.0208 11.9417 11.4999 11.9417C11.9791 11.9417 12.2666 12.2292 12.2666 12.7083V20.2916C12.2666 20.675 11.8833 21.0583 11.4999 21.0583ZM5.74994 21.1C5.36661 21.1 4.98328 20.8125 4.98328 20.3333C4.98328 20.3333 4.98328 13.05 4.98328 12.6666C4.98328 12.2833 5.27078 11.9 5.74994 11.9C6.22911 11.9 6.51661 12.2833 6.51661 12.6666V20.3333C6.51661 20.7166 6.13328 21.1 5.74994 21.1ZM17.2499 20.1417C16.8666 20.1417 16.4833 19.8542 16.4833 19.375V13.625C16.4833 13.2417 16.7708 12.8583 17.2499 12.8583C17.7291 12.8583 18.0166 13.1458 18.0166 13.625V19.375C18.0166 19.7583 17.6333 20.1417 17.2499 20.1417ZM8.62494 18.1833C8.24161 18.1833 7.85828 17.8958 7.85828 17.4167V15.5833C7.85828 15.2 8.14578 14.8167 8.62494 14.8167C9.10411 14.8167 9.39161 15.2 9.39161 15.5833V17.4167C9.39161 17.8 9.00828 18.1833 8.62494 18.1833ZM20.1249 18.225C19.7416 18.225 19.3583 17.9375 19.3583 17.4583V15.5416C19.3583 15.1583 19.6458 14.775 20.1249 14.775C20.6041 14.775 20.8916 15.0625 20.8916 15.5416V17.4583C20.8916 17.8417 20.5083 18.225 20.1249 18.225ZM2.87494 17.225C2.49161 17.225 2.10828 16.9375 2.10828 16.4583V16.5416C2.10828 16.1583 2.39578 15.775 2.87494 15.775C3.35411 15.775 3.64161 16.0625 3.64161 16.5416V16.4583C3.64161 16.8417 3.25828 17.225 2.87494 17.225Z" fill="black"/>
</svg>
