<svg width="24" height="24" viewBox="0 0 24 24" fill="none" xmlns="http://www.w3.org/2000/svg">
<mask id="mask0_1418_6068" style="mask-type:alpha" maskUnits="userSpaceOnUse" x="0" y="0" width="24" height="24">
<rect width="24" height="24" fill="#D9D9D9"/>
</mask>
<g mask="url(#mask0_1418_6068)">
<path d="M19 7.5C19.2833 7.5 19.5208 7.40417 19.7125 7.2125C19.9042 7.02083 20 6.78333 20 6.5C20 6.21667 19.9042 5.97917 19.7125 5.7875C19.5208 5.59583 19.2833 5.5 19 5.5C18.7167 5.5 18.4792 5.59583 18.2875 5.7875C18.0958 5.97917 18 6.21667 18 6.5C18 6.78333 18.0958 7.02083 18.2875 7.2125C18.4792 7.40417 18.7167 7.5 19 7.5ZM15 7.5C15.2833 7.5 15.5208 7.40417 15.7125 7.2125C15.9042 7.02083 16 6.78333 16 6.5C16 6.21667 15.9042 5.97917 15.7125 5.7875C15.5208 5.59583 15.2833 5.5 15 5.5C14.7167 5.5 14.4792 5.59583 14.2875 5.7875C14.0958 5.97917 14 6.21667 14 6.5C14 6.78333 14.0958 7.02083 14.2875 7.2125C14.4792 7.40417 14.7167 7.5 15 7.5ZM14.5 10.9H19.5C19.5 10.3167 19.2458 9.85417 18.7375 9.5125C18.2292 9.17083 17.65 9 17 9C16.35 9 15.7708 9.17083 15.2625 9.5125C14.7542 9.85417 14.5 10.3167 14.5 10.9ZM2.75 20.25C1.58333 19.0833 1 17.6667 1 16V9H13V16C13 17.6667 12.4167 19.0833 11.25 20.25C10.0833 21.4167 8.66667 22 7 22C5.33333 22 3.91667 21.4167 2.75 20.25ZM9.825 18.825C10.6083 18.0417 11 17.1 11 16V11H3V16C3 17.1 3.39167 18.0417 4.175 18.825C4.95833 19.6083 5.9 20 7 20C8.1 20 9.04167 19.6083 9.825 18.825ZM17 15C16.5667 15 16.1375 14.9542 15.7125 14.8625C15.2875 14.7708 14.8833 14.6333 14.5 14.45V12.1C14.8667 12.3833 15.2625 12.6042 15.6875 12.7625C16.1125 12.9208 16.55 13 17 13C18.1 13 19.0417 12.6083 19.825 11.825C20.6083 11.0417 21 10.1 21 9V4H13V7.5H11V2H23V9C23 10.6667 22.4167 12.0833 21.25 13.25C20.0833 14.4167 18.6667 15 17 15ZM5 14.5C5.28333 14.5 5.52083 14.4042 5.7125 14.2125C5.90417 14.0208 6 13.7833 6 13.5C6 13.2167 5.90417 12.9792 5.7125 12.7875C5.52083 12.5958 5.28333 12.5 5 12.5C4.71667 12.5 4.47917 12.5958 4.2875 12.7875C4.09583 12.9792 4 13.2167 4 13.5C4 13.7833 4.09583 14.0208 4.2875 14.2125C4.47917 14.4042 4.71667 14.5 5 14.5ZM9.7125 14.2125C9.90417 14.0208 10 13.7833 10 13.5C10 13.2167 9.90417 12.9792 9.7125 12.7875C9.52083 12.5958 9.28333 12.5 9 12.5C8.71667 12.5 8.47917 12.5958 8.2875 12.7875C8.09583 12.9792 8 13.2167 8 13.5C8 13.7833 8.09583 14.0208 8.2875 14.2125C8.47917 14.4042 8.71667 14.5 9 14.5C9.28333 14.5 9.52083 14.4042 9.7125 14.2125ZM8.7375 17.3875C9.24583 17.0458 9.5 16.5833 9.5 16H4.5C4.5 16.5833 4.75417 17.0458 5.2625 17.3875C5.77083 17.7292 6.35 17.9 7 17.9C7.65 17.9 8.22917 17.7292 8.7375 17.3875Z" fill="#0065E9"/>
</g>
</svg>
