<svg width="25" height="25" viewBox="0 0 25 25" fill="none" xmlns="http://www.w3.org/2000/svg">
<g clip-path="url(#clip0_1051_1232)">
<mask id="mask0_1051_1232" style="mask-type:alpha" maskUnits="userSpaceOnUse" x="0" y="0" width="25" height="25">
<rect width="25" height="25" fill="#D9D9D9"/>
</mask>
<g mask="url(#mask0_1051_1232)">
<path d="M12.5 16.6667L7.29163 11.4584L8.74996 9.948L11.4583 12.6563V4.16675H13.5416V12.6563L16.25 9.948L17.7083 11.4584L12.5 16.6667ZM6.24996 20.8334C5.67704 20.8334 5.18659 20.6294 4.77861 20.2214C4.37062 19.8134 4.16663 19.323 4.16663 18.7501V15.6251H6.24996V18.7501H18.75V15.6251H20.8333V18.7501C20.8333 19.323 20.6293 19.8134 20.2213 20.2214C19.8133 20.6294 19.3229 20.8334 18.75 20.8334H6.24996Z" fill="black"/>
</g>
</g>
<defs>
<clipPath id="clip0_1051_1232">
<rect width="25" height="25" fill="white"/>
</clipPath>
</defs>
</svg>
