<svg width="97" height="40" viewBox="0 0 97 40" fill="none" xmlns="http://www.w3.org/2000/svg">
<mask id="mask0_195_310" style="mask-type:luminance" maskUnits="userSpaceOnUse" x="0" y="0" width="97" height="40">
<path d="M96.7632 0.233841H0V39.7662H96.7632V0.233841Z" fill="white"/>
</mask>
<g mask="url(#mask0_195_310)">
<path d="M69.5486 27.4485L69.2699 25.6965L68.8539 25.4639L67.9672 12.3658C67.9672 12.3658 64.7433 11.2574 64.0208 10.8989C63.2983 10.5404 34.5542 11.2574 33.6511 10.8989C30.9105 10.8962 6.38375 10.8989 6.38375 10.8989L0.11499 10.8962L1.10843 20.836L0.11499 27.8859H67.543L69.8846 27.7845V27.4485H69.5486Z" fill="#181B1C"/>
<path d="M93.5996 3.09103C93.3697 3.12388 93.1945 3.33187 93.1945 3.5727C93.1945 4.67287 93.1945 5.77578 93.1945 6.87596C93.1945 6.90606 93.1945 6.93616 93.1918 6.96353C93.1699 7.08669 93.0577 7.17426 92.9345 7.16605C92.8114 7.15784 92.7101 7.06206 92.6992 6.93616C92.6992 6.9088 92.6992 6.88143 92.6992 6.8568C92.6992 5.26949 92.6992 3.67943 92.6992 2.09211C92.6992 1.82117 92.4802 1.60223 92.212 1.60223C91.9438 1.60223 91.7276 1.82117 91.7276 2.09211C91.7276 3.54533 91.7276 4.99581 91.7276 6.44902C91.7276 6.47913 91.7276 6.5065 91.7276 6.5366C91.7112 6.66523 91.6045 6.76101 91.4786 6.75828C91.3527 6.75554 91.2514 6.65702 91.2377 6.52565C91.2377 6.49828 91.2377 6.47092 91.2377 6.44629C91.2377 5.04507 91.2377 3.64386 91.2377 2.24263C91.2377 1.9498 91.2377 1.65697 91.2377 1.36687C91.2377 1.0932 91.0215 0.871521 90.7506 0.871521C90.4824 0.871521 90.2662 1.09046 90.2662 1.36414C90.2662 3.0664 90.2662 4.7714 90.2662 6.47365C90.2662 6.62144 90.206 6.71449 90.0883 6.75007C89.9296 6.79659 89.7763 6.68712 89.7708 6.52292C89.7708 6.50649 89.7708 6.49008 89.7708 6.47092C89.7708 5.04781 89.7708 3.6247 89.7708 2.20158C89.7708 2.12769 89.7736 2.04832 89.7572 1.97717C89.7052 1.74728 89.4808 1.58581 89.2536 1.60771C89.0073 1.6296 88.8212 1.81296 88.802 2.05653C88.802 2.08937 88.802 2.12495 88.802 2.15779C88.802 4.03248 88.802 5.90441 88.802 7.77908V7.86119C89.021 7.92139 89.2344 7.95697 89.4287 8.03634C90.2963 8.3839 90.8163 9.0243 90.986 9.94659C91.0079 10.067 91.0133 10.1874 91.0161 10.3106C91.0215 10.4666 90.923 10.576 90.7834 10.5815C90.6357 10.5842 90.5371 10.4803 90.5317 10.3215C90.4933 9.48955 90.0993 8.88747 89.3466 8.53169C89.1113 8.41948 88.8568 8.37296 88.5968 8.36475C88.3943 8.35927 88.3122 8.2717 88.3122 8.06644C88.3122 7.4452 88.3122 6.82396 88.3122 6.20272C88.3122 5.73747 87.9235 5.34338 87.4692 5.33243C87.368 5.33243 87.3379 5.35706 87.3379 5.45832C87.3379 6.91153 87.3297 8.36201 87.3379 9.81522C87.3434 10.7703 87.7019 11.5859 88.3888 12.2482C88.7309 12.5766 89.1277 12.8256 89.5765 12.9899C89.7134 13.0418 89.7845 13.1595 89.7544 13.2854C89.7188 13.4387 89.5656 13.5235 89.4151 13.4633C89.2344 13.3894 89.0593 13.3046 88.8841 13.2225C88.8622 13.2115 88.8431 13.2006 88.8075 13.1814C88.8075 13.2197 88.8075 13.2471 88.8075 13.2745C88.8075 14.1256 88.8075 14.662 88.8102 15.5131L90.6384 15.0889L92.7046 14.61C92.7046 13.7589 92.7046 14.1229 92.7046 13.2745V13.1924C92.4966 13.2854 92.2969 13.3757 92.0971 13.4606C91.9876 13.5071 91.8781 13.4715 91.807 13.3867C91.744 13.3073 91.7276 13.1896 91.7851 13.1075C91.8179 13.061 91.8672 13.0145 91.9219 12.9926C92.3434 12.8311 92.7183 12.5985 93.0549 12.2975C93.6707 11.7446 94.021 11.055 94.1387 10.2449C94.1633 10.0752 94.1688 9.90006 94.1715 9.72765C94.1715 7.71066 94.1715 5.69368 94.1715 3.6767C94.1715 3.60007 94.1715 3.51797 94.1551 3.44407C94.0922 3.2005 93.8623 3.05546 93.6078 3.09103H93.5996Z" fill="#C00BCA" fill-opacity="0.2"/>
<path d="M92.3351 12.7408C92.1353 12.8284 91.9437 12.9187 91.7494 12.9981C91.6427 13.0418 91.5359 13.009 91.4702 12.9269C91.41 12.8503 91.3936 12.7381 91.4511 12.6587C91.4839 12.6122 91.5305 12.5684 91.5825 12.5492C91.9902 12.396 92.3487 12.1688 92.6744 11.8787C93.2683 11.3478 93.6049 10.6828 93.7171 9.90006C93.7417 9.73586 93.7472 9.56892 93.7472 9.40197C93.7472 7.45888 93.7472 5.51306 93.7472 3.56997C93.7472 3.49607 93.7472 3.41671 93.7308 3.34555C93.6706 3.11019 93.4489 2.9706 93.2026 3.0062C92.9809 3.03904 92.8112 3.23882 92.8112 3.47144C92.8112 4.5333 92.8112 5.59516 92.8112 6.65428C92.8112 6.68165 92.8112 6.71175 92.8085 6.73912C92.7866 6.85954 92.6799 6.94164 92.5622 6.93617C92.4418 6.92796 92.346 6.83491 92.3378 6.71449C92.3378 6.68986 92.3378 6.66249 92.3378 6.63786C92.3378 5.10802 92.3378 3.57544 92.3378 2.04558C92.3378 1.78286 92.1271 1.57213 91.8698 1.57486C91.6098 1.57486 91.4046 1.78559 91.4046 2.04832C91.4046 3.44681 91.4046 4.84803 91.4046 6.2465C91.4046 6.27387 91.4046 6.30398 91.4046 6.33134C91.3881 6.45723 91.2841 6.54755 91.1637 6.54481C91.0433 6.54207 90.9448 6.44629 90.9338 6.3204C90.9338 6.29577 90.9338 6.2684 90.9338 6.24377C90.9338 4.89455 90.9338 3.5426 90.9338 2.19337C90.9338 1.91148 90.9338 1.6296 90.9338 1.34771C90.9338 1.08225 90.7258 0.868782 90.4631 0.868782C90.2031 0.868782 89.9979 1.07951 89.9979 1.34224C89.9979 2.9843 89.9979 4.62361 89.9979 6.26566C89.9979 6.40797 89.9404 6.49829 89.8255 6.53113C89.6749 6.57491 89.5244 6.46818 89.5189 6.31219C89.5189 6.29577 89.5189 6.27935 89.5189 6.26293C89.5189 4.89182 89.5189 3.5207 89.5189 2.14958C89.5189 2.07842 89.5189 2.0018 89.5053 1.93338C89.456 1.7117 89.2398 1.55571 89.0209 1.5776C88.7828 1.59949 88.6049 1.77738 88.5857 2.01001C88.5857 2.04285 88.5857 2.07569 88.5857 2.10853C88.5857 3.9148 88.5857 5.71831 88.5857 7.52457C88.5857 7.55741 88.5857 7.59025 88.5857 7.60393C88.7964 7.6614 89.0017 7.69698 89.1905 7.77087C90.028 8.10749 90.5288 8.72326 90.6903 9.6127C90.7122 9.72765 90.7149 9.84533 90.7204 9.96301C90.7258 10.1135 90.6301 10.2203 90.496 10.223C90.3537 10.2257 90.2579 10.1272 90.2524 9.97396C90.2168 9.17209 89.8364 8.59464 89.1112 8.24707C88.884 8.1376 88.6404 8.09381 88.3887 8.0856C88.1944 8.08013 88.115 7.99529 88.115 7.79824C88.115 7.19889 88.115 6.59955 88.115 6.00293C88.115 5.55411 87.7401 5.1737 87.3022 5.16275C87.2037 5.16275 87.1763 5.18738 87.1763 5.28591C87.1763 6.68438 87.1681 8.0856 87.1763 9.48408C87.1818 10.4036 87.5266 11.1891 88.1889 11.8295C88.5173 12.1469 88.9032 12.385 89.3328 12.5438C89.4642 12.593 89.5326 12.708 89.5025 12.8284C89.4669 12.9762 89.3219 13.0583 89.1741 12.9981C89.0017 12.9269 88.832 12.8448 88.6623 12.7682C88.6404 12.76 88.6213 12.7463 88.5885 12.7299C88.5885 12.7654 88.5885 12.7928 88.5885 12.8202C88.5885 13.7397 88.5884 14.662 88.5912 15.5816C88.5912 15.7047 88.5556 15.7594 88.4571 15.795C88.3449 15.8361 88.2026 15.8087 88.1478 15.7266C88.1232 15.691 88.115 15.639 88.115 15.5952C88.115 14.5635 88.115 13.529 88.115 12.4972C88.115 12.4343 88.0986 12.3905 88.0493 12.3495C87.3213 11.7173 86.8725 10.9263 86.7384 9.96848C86.7138 9.79607 86.7056 9.61818 86.7056 9.44303C86.7056 8.0555 86.7056 6.66796 86.7056 5.28043C86.7056 4.91097 86.9765 4.6674 87.3432 4.69751C87.6278 4.7194 87.8796 4.82066 88.115 5.00676C88.115 4.96844 88.115 4.94108 88.115 4.91371C88.115 3.96679 88.115 3.02262 88.115 2.07569C88.115 1.58307 88.4352 1.19993 88.9196 1.12056C89.1084 1.09046 89.2891 1.12056 89.4615 1.19993C89.4834 1.21088 89.5025 1.21909 89.5299 1.23277C89.5737 0.953621 89.7023 0.731945 89.9322 0.570477C90.1019 0.450061 90.2934 0.398063 90.5014 0.403537C90.9503 0.41722 91.2595 0.696367 91.4046 1.21635C91.5058 1.18624 91.6071 1.14246 91.7111 1.1233C92.3022 1.0193 92.8304 1.48181 92.8167 2.08116C92.8112 2.25358 92.8167 2.42873 92.8167 2.60114C92.8167 2.61483 92.8167 2.62851 92.8195 2.63672C92.9289 2.60662 93.0329 2.56283 93.1424 2.54641C93.7116 2.45336 94.2289 2.89945 94.2261 3.47692C94.2261 3.99416 94.2261 4.50867 94.2261 5.02592C94.2261 6.49829 94.2261 7.97066 94.2261 9.44303C94.2261 10.327 93.9525 11.1234 93.3969 11.8131C93.2437 12.0046 93.0603 12.1716 92.8851 12.344C92.8359 12.3905 92.8167 12.4316 92.8167 12.5C92.8195 13.529 92.8195 14.558 92.8222 15.5843C92.8222 15.7102 92.7866 15.7676 92.6854 15.8005C92.5759 15.8388 92.4363 15.8114 92.3816 15.7321C92.3569 15.6965 92.346 15.6445 92.346 15.6007C92.346 14.6757 92.346 13.7507 92.346 12.8256C92.346 12.7983 92.346 12.7709 92.346 12.7463L92.3351 12.7408Z" fill="#181B1C"/>
<path d="M85.4879 7.28097C84.8995 7.36581 84.4534 7.89948 84.4534 8.51524C84.4534 11.3286 84.4534 14.1393 84.4562 16.9526C84.4562 17.0265 84.4589 17.1032 84.4452 17.1771C84.3877 17.4918 84.1059 17.7162 83.7911 17.6971C83.4737 17.6779 83.2191 17.4316 83.1945 17.1114C83.189 17.0429 83.1945 16.9745 83.1945 16.9061C83.1945 12.8503 83.1945 8.79166 83.1973 4.7358C83.1973 4.0434 82.6417 3.4851 81.9548 3.4851C81.2678 3.4851 80.7205 4.04066 80.7205 4.73853C80.7205 8.44683 80.7205 12.1551 80.7205 15.8634C80.7205 15.9373 80.7232 16.0139 80.715 16.0878C80.6712 16.419 80.3976 16.6598 80.0774 16.6516C79.7572 16.6434 79.4944 16.3916 79.4671 16.0605C79.4616 15.9921 79.4671 15.9236 79.4671 15.8552C79.4671 12.2783 79.4671 8.69861 79.4671 5.12168C79.4671 4.37455 79.4671 3.62741 79.4725 2.88303C79.4753 2.18242 78.9197 1.61592 78.2273 1.61592C77.5404 1.61592 76.9903 2.17695 76.9903 2.87208C76.9903 7.22076 76.9903 11.5722 76.993 15.9209C76.993 16.3013 76.8398 16.5367 76.536 16.627C76.1337 16.7447 75.7424 16.4628 75.7259 16.0441C75.7259 16.0003 75.7259 15.9565 75.7259 15.9127C75.7259 12.2783 75.7259 8.64387 75.7259 5.01221C75.7259 4.82063 75.7341 4.62359 75.6904 4.43749C75.5563 3.84909 74.987 3.43858 74.4068 3.49058C73.7746 3.54805 73.3012 4.01603 73.2519 4.63454C73.2464 4.72211 73.2464 4.80969 73.2464 4.89453C73.2464 9.67836 73.2464 14.4649 73.2464 19.2488V19.4622C73.8047 19.6128 74.3494 19.7085 74.8502 19.9083C77.0697 20.7978 78.397 22.4343 78.8267 24.7879C78.8814 25.0917 78.8924 25.4065 78.906 25.7157C78.9225 26.1153 78.6707 26.3944 78.3094 26.4054C77.9345 26.4163 77.6827 26.1508 77.6636 25.7431C77.565 23.6166 76.5606 22.084 74.6367 21.17C74.0346 20.8826 73.386 20.7677 72.721 20.7458C72.2037 20.7293 71.9958 20.5049 71.9958 19.9877C71.9958 18.4004 72.0012 16.8131 71.9958 15.2285C71.9903 14.0408 71.005 13.0309 69.8419 13.0035C69.5792 12.998 69.508 13.0665 69.508 13.3292C69.508 17.0375 69.4862 20.7458 69.5135 24.4541C69.5299 26.8898 70.444 28.9752 72.1955 30.6692C73.0658 31.5094 74.0866 32.1416 75.2251 32.5658C75.5754 32.6971 75.7533 33.0009 75.6767 33.3211C75.5836 33.7125 75.195 33.9314 74.8091 33.7727C74.3494 33.5866 73.9033 33.3676 73.4517 33.1597C73.397 33.135 73.3422 33.1049 73.2519 33.0557C73.2519 33.1542 73.2519 33.2226 73.2519 33.2938C73.2547 35.464 73.2574 36.8406 73.2601 39.0108L77.9263 37.9298L83.2027 36.7065C83.2 34.5362 83.2 35.4667 83.2 33.2965V33.0858C82.6691 33.3211 82.16 33.5537 81.6455 33.77C81.3664 33.8876 81.0818 33.8001 80.9066 33.5811C80.7424 33.3786 80.7041 33.0803 80.8546 32.8668C80.9394 32.7464 81.0681 32.626 81.2022 32.5767C82.2804 32.169 83.2356 31.5696 84.0922 30.8006C85.6631 29.3912 86.5607 27.6314 86.8563 25.557C86.9192 25.1218 86.9357 24.6757 86.9384 24.2379C86.9439 19.0846 86.9411 13.934 86.9384 8.78071C86.9384 8.58366 86.9439 8.37841 86.8946 8.18957C86.7359 7.56559 86.1475 7.19616 85.4961 7.29195L85.4879 7.28097Z" fill="#FBBA00" fill-opacity="0.4"/>
<path d="M95.8819 19.8809C95.5535 19.9275 95.3044 20.2258 95.3044 20.5706C95.3044 22.1415 95.3044 23.7124 95.3044 25.2805C95.3044 25.3216 95.3045 25.3654 95.299 25.4064C95.2661 25.5816 95.1101 25.7075 94.9323 25.6965C94.7544 25.6856 94.6121 25.5487 94.5984 25.3681C94.5956 25.3298 94.5984 25.2915 94.5984 25.2532C94.5984 22.9871 94.5984 20.7239 94.5984 18.4578C94.5984 18.0719 94.2891 17.76 93.906 17.76C93.5228 17.76 93.2163 18.0692 93.2163 18.4606C93.2163 20.5323 93.2163 22.6013 93.2163 24.673C93.2163 24.714 93.2163 24.7578 93.2136 24.7989C93.1889 24.985 93.0357 25.1191 92.8578 25.1136C92.6772 25.1081 92.5321 24.9685 92.5157 24.7825C92.513 24.7441 92.5157 24.7058 92.5157 24.6675C92.5157 22.6697 92.5157 20.6719 92.5157 18.674C92.5157 18.258 92.5157 17.8393 92.5157 17.4233C92.5157 17.032 92.2065 16.7145 91.8206 16.7173C91.4374 16.7173 91.1309 17.0292 91.1309 17.4179C91.1309 19.8454 91.1309 22.2756 91.1309 24.7031C91.1309 24.9166 91.0461 25.0479 90.8764 25.0972C90.652 25.1629 90.433 25.0069 90.4248 24.7715C90.4248 24.7469 90.4248 24.7222 90.4248 24.6976C90.4248 22.6697 90.4248 20.639 90.4248 18.6111C90.4248 18.5044 90.4276 18.3949 90.4057 18.2909C90.3318 17.9625 90.0143 17.7326 89.6886 17.7627C89.3356 17.7955 89.0701 18.0555 89.0455 18.4004C89.0428 18.4496 89.0428 18.4989 89.0428 18.5454C89.0428 21.2165 89.0428 23.8875 89.0428 26.5613V26.679C89.3548 26.7639 89.6585 26.8159 89.9377 26.9281C91.1774 27.4234 91.9164 28.3375 92.1572 29.6511C92.1873 29.8208 92.1955 29.996 92.201 30.1684C92.2092 30.3928 92.0696 30.5488 91.8671 30.5543C91.6564 30.5597 91.5168 30.4119 91.5058 30.1848C91.4511 28.997 90.8901 28.1432 89.8145 27.6314C89.4779 27.4727 89.1167 27.407 88.7445 27.3933C88.4571 27.3851 88.3394 27.2592 88.3394 26.9691C88.3394 26.0824 88.3422 25.1984 88.3394 24.3117C88.3367 23.6494 87.7866 23.0857 87.138 23.0692C86.9929 23.0665 86.9519 23.1048 86.9519 23.2499C86.9519 25.3216 86.941 27.3906 86.9546 29.4623C86.9656 30.8225 87.4746 31.9883 88.4516 32.9325C88.9388 33.4032 89.508 33.7535 90.1429 33.9916C90.3373 34.0655 90.4385 34.2352 90.3947 34.4131C90.3427 34.632 90.1265 34.7524 89.9103 34.6648C89.6531 34.5608 89.404 34.4377 89.1522 34.3228C89.1221 34.3091 89.092 34.2926 89.0428 34.2653C89.0428 34.32 89.0428 34.3583 89.0428 34.3966C89.0428 35.609 89.0455 36.3781 89.0482 37.5877L91.6536 36.9829L94.5984 36.3014C94.5984 35.089 94.5984 35.609 94.5984 34.3966V34.279C94.3028 34.4103 94.0182 34.5417 93.7308 34.6594C93.5748 34.7251 93.4161 34.6758 93.3176 34.5526C93.2273 34.4404 93.2054 34.2735 93.2875 34.1531C93.334 34.0847 93.4051 34.019 93.4818 33.9916C94.0839 33.7645 94.6175 33.4306 95.0965 33.0009C95.9722 32.2155 96.473 31.2302 96.64 30.0726C96.6756 29.829 96.6838 29.58 96.6838 29.3364C96.6865 26.4601 96.6838 23.5838 96.6838 20.7074C96.6838 20.598 96.6865 20.483 96.6591 20.3763C96.5716 20.0287 96.2404 19.8235 95.8792 19.8755L95.8819 19.8809Z" fill="#0BBBEF" fill-opacity="0.2"/>
<path d="M94.0757 33.6386C93.7883 33.7645 93.5174 33.8904 93.241 34.0053C93.0904 34.0683 92.9372 34.0217 92.8441 33.904C92.7566 33.7946 92.7347 33.6331 92.8168 33.5209C92.8633 33.4552 92.9317 33.3923 93.0029 33.3649C93.583 33.146 94.0976 32.823 94.5573 32.4098C95.403 31.6517 95.8847 30.7048 96.0434 29.5882C96.0762 29.3528 96.0872 29.1147 96.0872 28.8766C96.0899 26.1043 96.0872 23.332 96.0872 20.5597C96.0872 20.4529 96.0899 20.3435 96.0653 20.2422C95.9804 19.9056 95.663 19.7085 95.3127 19.7578C94.9952 19.8043 94.7571 20.0889 94.7571 20.4201C94.7571 21.9335 94.7571 23.4469 94.7571 24.9604C94.7571 25.0014 94.7571 25.0425 94.7516 25.0808C94.7215 25.2505 94.5683 25.3709 94.3986 25.3599C94.2289 25.349 94.0921 25.2176 94.0757 25.0452C94.0729 25.0096 94.0757 24.9713 94.0757 24.9357C94.0757 22.7518 94.0757 20.5706 94.0757 18.3867C94.0757 18.0145 93.7774 17.7135 93.4079 17.7135C93.0384 17.7135 92.7429 18.0118 92.7429 18.3894C92.7429 20.3845 92.7429 22.3796 92.7429 24.3747C92.7429 24.4157 92.7429 24.4568 92.7401 24.4951C92.7155 24.673 92.5705 24.8016 92.398 24.7989C92.2256 24.7934 92.0861 24.6593 92.0696 24.4814C92.0669 24.4459 92.0696 24.4075 92.0696 24.372C92.0696 22.448 92.0696 20.5214 92.0696 18.5974C92.0696 18.1951 92.0696 17.7928 92.0696 17.3933C92.0696 17.0156 91.7741 16.7118 91.3991 16.7118C91.0297 16.7118 90.7341 17.0128 90.7341 17.3878C90.7341 19.7277 90.7341 22.0676 90.7341 24.4075C90.7341 24.6128 90.652 24.7387 90.4878 24.7879C90.2716 24.8509 90.0609 24.7004 90.0526 24.4732C90.0526 24.4486 90.0526 24.4267 90.0526 24.4021C90.0526 22.448 90.0526 20.4912 90.0526 18.5372C90.0526 18.4332 90.0554 18.3265 90.0335 18.228C89.9623 17.9105 89.6558 17.6916 89.3438 17.7189C89.0045 17.749 88.75 18.0035 88.7226 18.3347C88.7198 18.3812 88.7198 18.4277 88.7198 18.4743C88.7198 21.0495 88.7198 23.6221 88.7198 26.1974C88.7198 26.2439 88.7198 26.2904 88.7198 26.3123C89.0209 26.3944 89.3137 26.4437 89.5819 26.5531C90.7751 27.0321 91.4894 27.9133 91.7221 29.1777C91.7522 29.3419 91.7576 29.5088 91.7631 29.6758C91.7713 29.892 91.6372 30.0425 91.4429 30.0452C91.2404 30.0507 91.1063 29.9084 91.0953 29.6895C91.0433 28.5455 90.5015 27.7217 89.467 27.2291C89.1413 27.0759 88.7937 27.0129 88.4352 26.9992C88.1588 26.991 88.0466 26.8706 88.0466 26.5915C88.0466 25.7376 88.0493 24.8837 88.0466 24.0299C88.0439 23.3895 87.5129 22.8476 86.889 22.8339C86.7494 22.8312 86.7083 22.8667 86.7083 23.0091C86.7083 25.0041 86.6974 26.9992 86.7083 28.9943C86.7165 30.3052 87.2092 31.4273 88.1506 32.3386C88.6186 32.7902 89.1687 33.1296 89.7817 33.3594C89.9705 33.4306 90.0663 33.5948 90.0253 33.7672C89.976 33.9779 89.768 34.0956 89.5573 34.0108C89.311 33.9095 89.0702 33.7918 88.8266 33.6824C88.7965 33.6687 88.7691 33.6523 88.7198 33.6276C88.7198 33.6796 88.7198 33.718 88.7198 33.7563C88.7198 35.0699 88.7226 36.3808 88.7253 37.6944C88.7253 37.8696 88.6761 37.9462 88.5365 37.9982C88.3778 38.0557 88.1752 38.0174 88.0959 37.8997C88.063 37.8477 88.0493 37.7765 88.0493 37.7109C88.0493 36.2385 88.0493 34.7661 88.0493 33.291C88.0493 33.2007 88.0247 33.1405 87.9536 33.0803C86.9163 32.1772 86.2787 31.0524 86.0844 29.6867C86.0488 29.4404 86.0378 29.1859 86.0378 28.9369C86.0351 26.9582 86.0378 24.9795 86.0378 23.0008C86.0378 22.4754 86.4237 22.1278 86.9492 22.1689C87.3542 22.199 87.7155 22.344 88.0493 22.6068C88.0493 22.552 88.0493 22.5137 88.0493 22.4754C88.0493 21.1262 88.0493 19.777 88.0493 18.4277C88.0493 17.7271 88.5064 17.1798 89.196 17.0676C89.4642 17.0238 89.7215 17.0676 89.9678 17.1825C89.9979 17.1962 90.028 17.2099 90.0663 17.229C90.1293 16.8295 90.3126 16.5148 90.6383 16.2849C90.8819 16.1152 91.1528 16.0386 91.4511 16.0468C92.0888 16.0659 92.5321 16.4628 92.7401 17.2044C92.8852 17.1606 93.0275 17.1004 93.178 17.0731C94.0182 16.9225 94.7763 17.5821 94.7544 18.4387C94.7489 18.685 94.7544 18.934 94.7544 19.1831C94.7544 19.2022 94.7571 19.2214 94.7599 19.2323C94.9158 19.1886 95.0664 19.1283 95.2224 19.1037C96.0324 18.9724 96.7714 19.6073 96.7686 20.431C96.7686 21.1672 96.7686 21.9034 96.7686 22.6396C96.7686 24.7387 96.7686 26.8378 96.7686 28.9369C96.7686 30.1985 96.38 31.3315 95.5863 32.3167C95.3674 32.5877 95.1074 32.8285 94.8556 33.0721C94.7845 33.1405 94.7571 33.198 94.7571 33.2938C94.7626 34.7607 94.7626 36.2275 94.7626 37.6917C94.7626 37.8723 94.7133 37.9517 94.5683 38.001C94.4123 38.0557 94.2125 38.0174 94.1359 37.9024C94.1003 37.8532 94.0839 37.7793 94.0839 37.7163C94.0839 36.3972 94.0839 35.0781 94.0839 33.759C94.0839 33.7207 94.0839 33.6796 94.0839 33.6468L94.0757 33.6386Z" fill="#181B1C"/>
<path d="M82.2528 31.9227C81.741 32.1498 81.2512 32.3742 80.7558 32.5795C80.4849 32.6917 80.2139 32.6096 80.0415 32.3961C79.8855 32.2018 79.8472 31.9145 79.9895 31.7092C80.0716 31.5943 80.1948 31.4793 80.3234 31.4301C81.3606 31.036 82.2829 30.4613 83.1094 29.7196C84.6228 28.3622 85.4876 26.6654 85.7723 24.6648C85.8325 24.2461 85.8489 23.8164 85.8489 23.3922C85.8544 18.4278 85.8516 13.4633 85.8489 8.49885C85.8489 8.30728 85.8544 8.11023 85.8078 7.92961C85.6546 7.32752 85.0881 6.97448 84.4586 7.06479C83.8921 7.1469 83.4624 7.65867 83.4624 8.25254C83.4624 10.9619 83.4625 13.674 83.4652 16.3834C83.4652 16.4546 83.4679 16.5285 83.4542 16.5996C83.3995 16.9034 83.1258 17.1196 82.8221 17.1004C82.5155 17.084 82.272 16.8432 82.2446 16.5367C82.2391 16.471 82.2446 16.4053 82.2446 16.3396C82.2446 12.4316 82.2446 8.52074 82.2473 4.61267C82.2473 3.9449 81.7109 3.40576 81.0514 3.4085C80.3891 3.4085 79.8609 3.9449 79.8609 4.61814C79.8609 8.19233 79.8609 11.7665 79.8609 15.338C79.8609 15.4091 79.8636 15.483 79.8554 15.5542C79.8144 15.8744 79.5489 16.1043 79.2424 16.0961C78.9331 16.0879 78.6813 15.847 78.654 15.5241C78.6485 15.4584 78.654 15.3927 78.654 15.327C78.654 11.8787 78.654 8.43043 78.654 4.98487C78.654 4.2651 78.654 3.54534 78.6595 2.82558C78.6622 2.1496 78.1285 1.60225 77.4608 1.60499C76.7985 1.60499 76.2703 2.14686 76.2703 2.81463C76.2703 7.00459 76.2703 11.1973 76.273 15.3872C76.273 15.754 76.1252 15.9811 75.8324 16.066C75.4438 16.1809 75.0661 15.9072 75.0524 15.5049C75.0524 15.4639 75.0524 15.4201 75.0524 15.379C75.0524 11.876 75.0524 8.3757 75.0524 4.87266C75.0524 4.6893 75.0579 4.49772 75.0196 4.31984C74.891 3.75333 74.3409 3.3565 73.7826 3.4085C73.1723 3.46323 72.718 3.9148 72.6715 4.51141C72.666 4.59625 72.666 4.67835 72.666 4.76319C72.666 9.37461 72.666 13.986 72.666 18.5974C72.666 18.6796 72.666 18.7617 72.666 18.8027C73.2024 18.9478 73.7278 19.0381 74.2122 19.2324C76.3496 20.089 77.6304 21.6653 78.0437 23.9341C78.0984 24.2269 78.1066 24.5307 78.1203 24.829C78.134 25.2149 77.8932 25.4831 77.5456 25.4941C77.1843 25.5023 76.9408 25.2477 76.9216 24.8537C76.8286 22.8038 75.8598 21.3287 74.0042 20.4448C73.4241 20.1683 72.8001 20.0561 72.1569 20.0342C71.6589 20.0178 71.4591 19.8016 71.4591 19.3035C71.4591 17.7737 71.4645 16.2466 71.4591 14.7167C71.4536 13.5728 70.5039 12.5985 69.3846 12.5739C69.1328 12.5684 69.0617 12.6341 69.0617 12.8859C69.0617 16.46 69.0425 20.0342 69.0672 23.6057C69.0836 25.9538 69.9648 27.9626 71.6506 29.5937C72.4881 30.4038 73.4706 31.0113 74.5708 31.4218C74.9074 31.5477 75.0798 31.8406 75.0059 32.1498C74.9156 32.5275 74.5434 32.7355 74.1685 32.585C73.7251 32.4043 73.2954 32.1936 72.8603 31.9966C72.8083 31.9719 72.7563 31.9418 72.6687 31.898C72.6687 31.9911 72.6687 32.0595 72.6687 32.1279C72.6715 34.4788 72.6742 36.8297 72.6797 39.1805C72.6797 39.4925 72.5921 39.6321 72.3403 39.7224C72.0557 39.8264 71.6917 39.758 71.5494 39.5445C71.4892 39.4542 71.4645 39.3228 71.4645 39.2079C71.4591 36.5697 71.4591 33.9314 71.4645 31.2932C71.4645 31.129 71.4208 31.025 71.2921 30.9128C69.4339 29.2954 68.2899 27.2811 67.9451 24.8345C67.8821 24.3911 67.863 23.9396 67.8602 23.4908C67.8548 19.9467 67.8548 16.4026 67.8575 12.8585C67.8575 11.917 68.5472 11.2958 69.4886 11.3697C70.2166 11.4272 70.8597 11.6817 71.4591 12.1551C71.4591 12.0566 71.4591 11.9882 71.4591 11.9198C71.4591 9.50323 71.4591 7.08669 71.4591 4.67014C71.4591 3.41397 72.2801 2.43696 73.5144 2.2317C73.9933 2.15234 74.4585 2.22623 74.8992 2.43422C74.9512 2.45885 75.0059 2.48622 75.077 2.51906C75.1893 1.80477 75.5204 1.23826 76.1033 0.830488C76.5385 0.523972 77.0284 0.389871 77.5593 0.406291C78.7032 0.439132 79.4942 1.15342 79.8664 2.48075C80.1263 2.40138 80.3836 2.29465 80.6491 2.24539C82.157 1.97718 83.509 3.15672 83.4734 4.6893C83.4625 5.13265 83.4707 5.576 83.4679 6.01936C83.4679 6.0522 83.4761 6.08777 83.4761 6.10693C83.7553 6.02757 84.0235 5.92083 84.3026 5.87431C85.7558 5.63621 87.075 6.7747 87.0722 8.2498C87.0722 9.56892 87.0695 10.888 87.0695 12.2071C87.0695 15.9674 87.075 19.725 87.0695 23.4853C87.0667 25.7458 86.3716 27.7765 84.9512 29.5362C84.5571 30.0234 84.0919 30.453 83.6403 30.8909C83.5144 31.0113 83.4624 31.1181 83.4624 31.2877C83.4707 33.915 83.4707 36.5396 83.4734 39.1668C83.4734 39.4898 83.3831 39.6321 83.1258 39.7224C82.8439 39.8182 82.4909 39.7525 82.3513 39.5473C82.2884 39.4569 82.261 39.3256 82.261 39.2134C82.2555 36.8516 82.2583 34.4897 82.2583 32.1252C82.2583 32.054 82.2583 31.9829 82.2583 31.9227H82.2528Z" fill="#181B1C"/>
<path d="M0 30.3956H3.56051V30.9976H0.648609V32.4864H3.34157V33.0557H0.648609V34.7196H3.61251V35.3053H0V30.3983V30.3956Z" fill="#181B1C"/>
<path d="M4.22539 30.3956H5.0081L7.45476 34.3611V30.3956H8.08968V35.3025H7.34255L4.85758 31.3425V35.3025H4.22266V30.3956H4.22539Z" fill="#181B1C"/>
<path d="M13.9684 30.3956V30.9812H12.3154V35.3053H11.6449V30.9812H9.99194V30.3956H13.9712H13.9684Z" fill="#181B1C"/>
<path d="M15.0248 30.3956V33.4279C15.0248 33.7837 15.0932 34.0792 15.2273 34.3173C15.4271 34.6731 15.7637 34.851 16.2372 34.851C16.8064 34.851 17.1923 34.6594 17.3948 34.2735C17.5043 34.0655 17.559 33.7837 17.559 33.4279V30.3956H18.2295V33.1515C18.2295 33.7563 18.1474 34.2188 17.986 34.5445C17.6877 35.1383 17.1212 35.4339 16.2892 35.4339C15.4572 35.4339 14.8934 35.1383 14.5951 34.5445C14.4309 34.2188 14.3516 33.7563 14.3516 33.1515V30.3956H15.0221H15.0248Z" fill="#181B1C"/>
<path d="M19.409 33.7207C19.4227 33.9998 19.4884 34.2243 19.5979 34.3994C19.8113 34.7251 20.1835 34.8866 20.7199 34.8866C20.9608 34.8866 21.1797 34.851 21.3767 34.7798C21.7599 34.643 21.9487 34.3939 21.9487 34.0382C21.9487 33.77 21.8666 33.5811 21.7052 33.4662C21.5409 33.354 21.2837 33.2582 20.9361 33.1761L20.293 33.0256C19.8715 32.927 19.5732 32.8203 19.4008 32.7026C19.0998 32.4974 18.9465 32.1909 18.9465 31.7831C18.9465 31.3425 19.0943 30.9812 19.3926 30.6966C19.6882 30.4147 20.1096 30.2724 20.6542 30.2724C21.1551 30.2724 21.5793 30.3955 21.9296 30.6446C22.2799 30.8936 22.455 31.2905 22.455 31.8351H21.831C21.7982 31.5724 21.7298 31.3698 21.6258 31.2303C21.4315 30.973 21.1003 30.8471 20.6351 30.8471C20.2602 30.8471 19.9892 30.9292 19.825 31.0934C19.6608 31.2576 19.5787 31.4492 19.5787 31.6681C19.5787 31.909 19.6745 32.0841 19.8688 32.1963C19.9974 32.2675 20.2848 32.3578 20.7336 32.4645L21.4014 32.6205C21.7243 32.6972 21.9706 32.8012 22.1458 32.9325C22.4468 33.1624 22.6001 33.4935 22.6001 33.9314C22.6001 34.476 22.4085 34.8647 22.0226 35.0973C21.6367 35.3299 21.1879 35.4476 20.6789 35.4476C20.085 35.4476 19.617 35.2916 19.2804 34.9796C18.9438 34.6703 18.7796 34.2489 18.785 33.7207H19.409Z" fill="#181B1C"/>
<path d="M6.51345 1.802H1.82266V3.68488H6.12757V5.22293H1.82266V7.50264H6.72965V9.09543H0.0136719V0.233841H6.51345V1.802Z" fill="#181B1C"/>
<path d="M8.17456 0.233841H10.0273V7.50264H14.4527V9.09543H8.17456V0.233841Z" fill="#181B1C"/>
<path d="M12.8545 20.39C12.0472 21.0632 10.895 21.3998 9.39804 21.3998H6.52719V26.3588H3.66455V12.5711H9.58414C10.9498 12.5711 12.0363 12.9269 12.8491 13.6384C13.6619 14.35 14.0669 15.4502 14.0669 16.9417C14.0669 18.57 13.6619 19.7195 12.8573 20.3927L12.8545 20.39ZM10.6569 15.4228C10.293 15.1163 9.78118 14.9658 9.12436 14.9658H6.52719V19.0243H9.12436C9.78118 19.0243 10.293 18.8601 10.6569 18.529C11.0209 18.1979 11.2043 17.6751 11.2043 16.9581C11.2043 16.2411 11.0209 15.7293 10.6569 15.4228Z" fill="white"/>
<path d="M26.2264 25.1301C25.1837 26.2029 23.6784 26.7393 21.708 26.7393C19.7375 26.7393 18.2323 26.2029 17.1896 25.1301C15.7939 23.8137 15.0933 21.9199 15.0933 19.4431C15.0933 16.9663 15.7911 15.0205 17.1896 13.7561C18.2323 12.6833 19.7375 12.1469 21.708 12.1469C23.6784 12.1469 25.1837 12.6833 26.2264 13.7561C27.6166 15.0233 28.3118 16.9171 28.3118 19.4431C28.3118 21.9691 27.6166 23.8137 26.2264 25.1301ZM24.4256 23.0337C25.0961 22.1908 25.43 20.9948 25.43 19.4431C25.43 17.8914 25.0933 16.7009 24.4256 15.8552C23.7551 15.0096 22.8492 14.5881 21.708 14.5881C20.5668 14.5881 19.6554 15.0096 18.9767 15.8498C18.298 16.6927 17.9559 17.8886 17.9559 19.4404C17.9559 20.9921 18.2953 22.1908 18.9767 23.031C19.6554 23.8739 20.5668 24.2926 21.708 24.2926C22.8492 24.2926 23.7551 23.8712 24.4256 23.031V23.0337Z" fill="white"/>
<path d="M37.8245 12.8694C38.7906 13.1869 39.576 13.7698 40.1754 14.6182C40.657 15.3051 40.9827 16.0468 41.1578 16.8431C41.333 17.6423 41.4206 18.4031 41.4206 19.1256C41.4206 20.9592 41.0511 22.511 40.3149 23.7835C39.316 25.4995 37.7752 26.3561 35.6898 26.3561H29.7456V12.5683H35.6898C36.5437 12.582 37.2552 12.6806 37.8245 12.8667V12.8694ZM32.5426 14.9657V23.9642H35.2027C36.5656 23.9642 37.5125 23.2937 38.0516 21.9527C38.3445 21.2165 38.4922 20.3407 38.4922 19.3254C38.4922 17.9214 38.2733 16.8459 37.8327 16.0933C37.3921 15.3407 36.5163 14.9657 35.2054 14.9657H32.5453H32.5426Z" fill="white"/>
<path d="M53.011 15.0095H45.7148V17.9378H52.4116V20.3325H45.7148V23.8766H53.3476V26.3561H42.8987V12.5683H53.011V15.0095Z" fill="white"/>
<path d="M63.6621 12.9242C64.1684 13.1431 64.6008 13.4633 64.9539 13.8875C65.2467 14.2378 65.4766 14.6237 65.6463 15.0479C65.816 15.4721 65.9008 15.9565 65.9008 16.4984C65.9008 17.1525 65.7366 17.7983 65.4055 18.4305C65.0743 19.0627 64.5297 19.5115 63.7689 19.7715C64.4038 20.0261 64.8554 20.39 65.1208 20.8608C65.3863 21.3315 65.5177 22.0512 65.5177 23.0173V23.9423C65.5177 24.5718 65.5423 24.9987 65.5943 25.2231C65.6709 25.5789 65.8488 25.8416 66.1252 26.0086V26.3534H62.9451C62.8575 26.0469 62.7946 25.8006 62.759 25.6145C62.6851 25.2286 62.6441 24.8318 62.6386 24.4267L62.6194 23.1459C62.6085 22.2675 62.4552 21.6818 62.1624 21.3862C61.8696 21.0934 61.3222 20.9456 60.5204 20.9456H57.707V26.3534H54.8909V12.5657H61.4864C62.4279 12.5848 63.1531 12.7025 63.6621 12.9215V12.9242ZM57.707 14.9631V18.6686H60.8077C61.4235 18.6686 61.886 18.5947 62.1925 18.4442C62.7371 18.1815 63.0108 17.6642 63.0108 16.8925C63.0108 16.0578 62.7481 15.4967 62.2199 15.2094C61.9243 15.0479 61.4782 14.9658 60.8871 14.9658H57.707V14.9631Z" fill="white"/>
<path d="M25.1096 30.0316H26.9378L29.6471 37.9982L32.3374 30.0316H34.1518V39.7279H32.934V33.8931C32.934 33.7015 32.9395 33.3813 32.9477 32.938C32.9559 32.4946 32.9613 32.0157 32.9613 31.5067L30.2711 39.7279H29.0067L26.2919 31.5067V31.794C26.2919 32.0239 26.2974 32.377 26.3111 32.8504C26.3247 33.3239 26.3302 33.6714 26.3302 33.8931V39.7279H25.1124V30.0316H25.1096Z" fill="#181B1C"/>
<path d="M38.3063 30.0316H39.7486L43.1695 39.7279H41.771L40.7885 36.6326H37.0912L36.0704 39.7279H34.7622L38.3118 30.0316H38.3063ZM40.4218 35.5926L38.9713 31.43L37.4634 35.5926H40.4218Z" fill="#181B1C"/>
<path d="M43.7935 30.0316H45.2959L49.9949 37.6452V30.0316H51.2128V39.7279H49.7787L45.0113 31.8488V39.7279H43.7935V30.0316Z" fill="#181B1C"/>
<path d="M60.5176 31.378C61.1415 32.2127 61.4535 33.2801 61.4535 34.58C61.4535 35.9867 61.0977 37.1553 60.3834 38.0885C59.546 39.1832 58.35 39.7306 56.7983 39.7306C55.3478 39.7306 54.2093 39.2516 53.3801 38.2938C52.6412 37.3688 52.2717 36.2029 52.2717 34.7907C52.2717 33.5154 52.5892 32.4262 53.2214 31.5203C54.0342 30.3572 55.2356 29.7743 56.8257 29.7743C58.4157 29.7743 59.7212 30.308 60.5203 31.378H60.5176ZM59.3927 37.3852C59.8963 36.5778 60.1454 35.6501 60.1454 34.6019C60.1454 33.4935 59.8553 32.6013 59.2751 31.9254C58.6949 31.2494 57.904 30.91 56.8996 30.91C55.8952 30.91 55.1289 31.2439 54.5131 31.9144C53.8974 32.5849 53.5881 33.5729 53.5881 34.8783C53.5881 35.9238 53.8508 36.8023 54.379 37.5193C54.9072 38.2363 55.7638 38.5948 56.9488 38.5948C58.1338 38.5948 58.8864 38.1925 59.39 37.3852H59.3927Z" fill="#181B1C"/>
<path d="M63.2817 36.4137C63.3118 36.9473 63.4323 37.3825 63.6457 37.7164C64.0535 38.3403 64.7733 38.6523 65.8023 38.6523C66.2648 38.6523 66.6835 38.5839 67.0639 38.4471C67.7974 38.1816 68.1641 37.7082 68.1641 37.024C68.1641 36.5095 68.0081 36.1455 67.6988 35.9265C67.3841 35.7131 66.8915 35.527 66.221 35.3682L64.984 35.0809C64.1767 34.892 63.6047 34.684 63.2681 34.4596C62.6879 34.0655 62.3978 33.4771 62.3978 32.6944C62.3978 31.8488 62.6824 31.1536 63.2516 30.609C63.8209 30.0644 64.6282 29.7935 65.6737 29.7935C66.6343 29.7935 67.4525 30.0316 68.123 30.5078C68.7935 30.984 69.1302 31.7475 69.1302 32.7957H67.9315C67.8713 32.2921 67.7399 31.9035 67.5374 31.6353C67.1652 31.1427 66.5303 30.8964 65.6381 30.8964C64.9156 30.8964 64.3983 31.0551 64.0809 31.3698C63.7634 31.6846 63.6074 32.054 63.6074 32.4728C63.6074 32.9353 63.7935 33.2719 64.1657 33.4854C64.4093 33.6222 64.9621 33.7919 65.8242 33.9999L67.105 34.3009C67.7235 34.446 68.1997 34.6457 68.5336 34.8975C69.1137 35.3381 69.4038 35.9785 69.4038 36.816C69.4038 37.8587 69.0344 38.6058 68.2927 39.0546C67.5511 39.5035 66.6917 39.7279 65.712 39.7279C64.568 39.7279 63.6758 39.4296 63.0272 38.8302C62.3814 38.2363 62.0639 37.429 62.0776 36.4109H63.2763L63.2817 36.4137Z" fill="#181B1C"/>
</g>
</svg>
