<svg width="50" height="50" viewBox="0 0 50 50" fill="none" xmlns="http://www.w3.org/2000/svg">
<g clip-path="url(#clip0_195_305)">
<path d="M49.9976 25C49.9976 38.8077 38.8063 50 24.9976 50C11.1888 50 0 38.8077 0 25C0 11.1923 11.1913 0 25 0C38.8087 0 50 11.1923 50 25" fill="#FFE000"/>
<path d="M12.9863 29.2507C15.6472 28.662 17.6375 26.2928 17.6375 23.4555C17.6375 20.1767 14.979 17.5203 11.7029 17.5203C8.42681 17.5203 5.76831 20.1767 5.76831 23.4555V32.4113H8.14214V28.3363C10.5449 30.8455 13.932 32.4113 17.6809 32.4113V30.2906C16.0018 30.2906 14.412 29.9142 12.9863 29.2507ZM8.16868 23.4965C8.16868 21.5157 9.77535 19.9065 11.7608 19.9065C13.7462 19.9065 15.3481 21.5157 15.3481 23.4965C15.3481 25.4773 13.7462 27.0865 11.7608 27.0865C9.77535 27.0865 8.16868 25.4797 8.16868 23.4965Z" fill="black"/>
<path fill-rule="evenodd" clip-rule="evenodd" d="M25.4461 17.5945C22.1677 17.5945 19.5092 20.2532 19.5092 23.532V32.4902H21.883V28.2826C22.8769 29.0257 24.1072 29.4696 25.4461 29.4696C28.7246 29.4696 31.3807 26.8132 31.3807 23.5344C31.3807 20.2556 28.7246 17.5969 25.4461 17.5969M25.4558 27.0063C23.5162 27.0063 21.9433 25.4356 21.9433 23.4958C21.9433 21.5561 23.5162 19.9854 25.4558 19.9854C27.3954 19.9854 28.9635 21.5561 28.9635 23.4958C28.9635 25.4356 27.3906 27.0063 25.4558 27.0063Z" fill="black"/>
<path fill-rule="evenodd" clip-rule="evenodd" d="M38.2922 17.5945C35.0137 17.5945 32.3577 20.2532 32.3577 23.532V32.4902H34.7315V28.2826C35.723 29.0257 36.9558 29.4696 38.2922 29.4696C41.5731 29.4696 44.2292 26.8132 44.2292 23.5344C44.2292 20.2556 41.5731 17.5969 38.2922 17.5969M38.3019 27.0063C36.3599 27.0063 34.7894 25.4356 34.7894 23.4958C34.7894 21.5561 36.3599 19.9854 38.3019 19.9854C40.2439 19.9854 41.8096 21.5561 41.8096 23.4958C41.8096 25.4356 40.2391 27.0063 38.3019 27.0063Z" fill="black"/>
</g>
<defs>
<clipPath id="clip0_195_305">
<rect width="50" height="50" fill="white"/>
</clipPath>
</defs>
</svg>
