<svg width="24" height="24" viewBox="0 0 24 24" fill="none" xmlns="http://www.w3.org/2000/svg">
<mask id="mask0_1420_6167" style="mask-type:alpha" maskUnits="userSpaceOnUse" x="0" y="0" width="24" height="24">
<rect width="24" height="24" fill="#D9D9D9"/>
</mask>
<g mask="url(#mask0_1420_6167)">
<path d="M15.7625 7.2375C15.2542 6.72917 15 6.15 15 5.5C15 4.91667 15.1917 4.27083 15.575 3.5625C15.9583 2.85417 16.6 2 17.5 1C18.4 2 19.0417 2.85417 19.425 3.5625C19.8083 4.27083 20 4.91667 20 5.5C20 6.15 19.7458 6.72917 19.2375 7.2375C18.7292 7.74583 18.15 8 17.5 8C16.85 8 16.2708 7.74583 15.7625 7.2375ZM6 22C4.9 22 3.95833 21.6083 3.175 20.825C2.39167 20.0417 2 19.1 2 18V12.6C2 12.0833 2.12083 11.6042 2.3625 11.1625C2.60417 10.7208 2.94167 10.3583 3.375 10.075L11.625 4.725L12.125 5.225C12.4583 5.55833 12.6542 5.95417 12.7125 6.4125C12.7708 6.87083 12.675 7.3 12.425 7.7L11.3 9.5H19C19.2833 9.5 19.5208 9.59583 19.7125 9.7875C19.9042 9.97917 20 10.2167 20 10.5C20 10.7833 19.9042 11.0208 19.7125 11.2125C19.5208 11.4042 19.2833 11.5 19 11.5H7.7L9.625 8.4L4.45 11.75C4.3 11.8333 4.1875 11.95 4.1125 12.1C4.0375 12.25 4 12.4167 4 12.6V18C4 18.55 4.19583 19.0208 4.5875 19.4125C4.97917 19.8042 5.45 20 6 20H18C18.2833 20 18.5208 20.0958 18.7125 20.2875C18.9042 20.4792 19 20.7167 19 21C19 21.2833 18.9042 21.5208 18.7125 21.7125C18.5208 21.9042 18.2833 22 18 22H6ZM12 15V13H21C21.2833 13 21.5208 13.0958 21.7125 13.2875C21.9042 13.4792 22 13.7167 22 14C22 14.2833 21.9042 14.5208 21.7125 14.7125C21.5208 14.9042 21.2833 15 21 15H12ZM12 18.5V16.5H20C20.2833 16.5 20.5208 16.5958 20.7125 16.7875C20.9042 16.9792 21 17.2167 21 17.5C21 17.7833 20.9042 18.0208 20.7125 18.2125C20.5208 18.4042 20.2833 18.5 20 18.5H12Z" fill="#0065E9"/>
</g>
</svg>
