<svg width="25" height="25" viewBox="0 0 25 25" fill="none" xmlns="http://www.w3.org/2000/svg">
<g clip-path="url(#clip0_1051_1213)">
<path d="M4 10V8C4 7.46957 4.21071 6.96086 4.58579 6.58579C4.96086 6.21071 5.46957 6 6 6H8M4 18V20C4 20.5304 4.21071 21.0391 4.58579 21.4142C4.96086 21.7893 5.46957 22 6 22H8M16 22H18C18.5304 22 19.0391 21.7893 19.4142 21.4142C19.7893 21.0391 20 20.5304 20 20V18M8 14H16M8 11H14M8 17H12" stroke="black" stroke-width="2" stroke-linecap="round" stroke-linejoin="round"/>
<path d="M24.4492 6.23953L22.9726 5.81757C22.3077 5.63011 21.7019 5.27513 21.2134 4.78662C20.7249 4.2981 20.3699 3.69239 20.1825 3.02745L19.7605 1.55086C19.7393 1.4992 19.7032 1.45502 19.6568 1.42392C19.6104 1.39282 19.5558 1.37622 19.5 1.37622C19.4441 1.37622 19.3895 1.39282 19.3431 1.42392C19.2968 1.45502 19.2607 1.4992 19.2394 1.55086L18.8175 3.02745C18.63 3.69239 18.275 4.2981 17.7865 4.78662C17.298 5.27513 16.6923 5.63011 16.0273 5.81757L14.5508 6.23953C14.4941 6.25562 14.4442 6.28977 14.4086 6.33679C14.3731 6.38381 14.3539 6.44114 14.3539 6.50007C14.3539 6.55901 14.3731 6.61633 14.4086 6.66335C14.4442 6.71037 14.4941 6.74452 14.5508 6.76061L16.0273 7.18257C16.6923 7.37004 17.298 7.72501 17.7865 8.21353C18.275 8.70204 18.63 9.30775 18.8175 9.9727L19.2394 11.4493C19.2555 11.506 19.2897 11.5559 19.3367 11.5914C19.3837 11.6269 19.441 11.6462 19.5 11.6462C19.5589 11.6462 19.6162 11.6269 19.6633 11.5914C19.7103 11.5559 19.7444 11.506 19.7605 11.4493L20.1825 9.9727C20.3699 9.30775 20.7249 8.70204 21.2134 8.21353C21.7019 7.72501 22.3077 7.37004 22.9726 7.18257L24.4492 6.76061C24.5059 6.74452 24.5558 6.71037 24.5913 6.66335C24.6268 6.61633 24.6461 6.55901 24.6461 6.50007C24.6461 6.44114 24.6268 6.38381 24.5913 6.33679C24.5558 6.28977 24.5059 6.25562 24.4492 6.23953Z" fill="black"/>
</g>
<defs>
<clipPath id="clip0_1051_1213">
<rect width="25" height="25" fill="white"/>
</clipPath>
</defs>
</svg>
